# Blender v2.83.2 OBJ File: 'Object_Pool.blend'
# www.blender.org
mtllib Collection.mtl
o Plane
v -4.671193 0.000000 5.272625
v 4.671193 0.000000 5.272625
v -4.671193 8.335859 -2.776716
v 4.671193 8.335859 -2.776716
v -4.671193 0.000000 -2.676644
v -4.671193 0.100072 -2.776716
v -4.671193 0.003410 -2.702545
v -4.671193 0.013407 -2.726680
v -4.671193 0.029310 -2.747406
v -4.671193 0.050036 -2.763309
v -4.671193 0.074172 -2.773306
v 4.671193 0.100072 -2.776716
v 4.671193 0.000000 -2.676644
v 4.671193 0.074172 -2.773306
v 4.671193 0.050036 -2.763309
v 4.671193 0.029310 -2.747406
v 4.671193 0.013407 -2.726680
v 4.671193 0.003410 -2.702545
vt 0.000000 1.000000
vt 1.000000 1.000000
vt 1.000000 1.000000
vt 0.000000 1.000000
vt 0.000000 1.000000
vt 1.000000 1.000000
vt 0.000000 1.000000
vt 1.000000 1.000000
vt 0.000000 1.000000
vt 1.000000 1.000000
vt 0.000000 0.990990
vt 1.000000 0.990990
vt 0.000000 0.986644
vt 1.000000 0.986644
vt 0.000000 0.981980
vt 1.000000 0.981980
vt 0.000000 0.000000
vt 1.000000 0.000000
vn 0.0000 0.0000 1.0000
vn 0.0000 0.1305 0.9914
vn 0.0000 0.3827 0.9239
vn 0.0000 0.6088 0.7934
vn -0.0000 0.7934 0.6088
vn 0.0000 0.9239 0.3827
vn 0.0000 0.9914 0.1305
vn 0.0000 1.0000 0.0000
usemtl None
s off
f 6/1/1 12/2/1 4/3/1 3/4/1
f 12/2/2 6/1/2 11/5/2 14/6/2
f 14/6/3 11/5/3 10/7/3 15/8/3
f 15/8/4 10/7/4 9/9/4 16/10/4
f 16/10/5 9/9/5 8/11/5 17/12/5
f 17/12/6 8/11/6 7/13/6 18/14/6
f 18/14/7 7/13/7 5/15/7 13/16/7
f 1/17/8 2/18/8 13/16/8 5/15/8
